<svg width="64" height="54" viewBox="0 0 64 54" fill="none" xmlns="http://www.w3.org/2000/svg">
<path d="M15.62 17.08C15.16 17.08 14.8 16.9633 14.54 16.73C14.2867 16.49 14.16 16.15 14.16 15.71V12.72L13.32 12.59V12.26L14.59 11.97L14.85 12.11V15.26C14.85 15.7267 14.93 16.05 15.09 16.23C15.2567 16.4033 15.56 16.49 16 16.49C16.14 16.49 16.3067 16.46 16.5 16.4C16.6933 16.34 16.8667 16.2633 17.02 16.17V12.72L16.2 12.59V12.26L17.47 11.97L17.73 12.11V16.33L18.42 16.49V16.82L17.14 17.01L17.02 16.5L17.01 16.51C16.8633 16.6767 16.6633 16.8133 16.41 16.92C16.1567 17.0267 15.8933 17.08 15.62 17.08Z" fill="#83A5FF"/>
<path d="M20.749 17.08C20.509 17.08 20.2823 17.0533 20.069 17C19.8623 16.9533 19.6823 16.9 19.529 16.84C19.3757 16.7733 19.269 16.7167 19.209 16.67L19.339 15.51H19.699L19.809 16.3C19.9023 16.3667 20.0357 16.43 20.209 16.49C20.3823 16.55 20.5857 16.58 20.819 16.58C21.2523 16.58 21.539 16.4933 21.679 16.32C21.8257 16.1467 21.899 15.9267 21.899 15.66C21.899 15.4467 21.8423 15.2833 21.729 15.17C21.6223 15.05 21.479 14.96 21.299 14.9C21.119 14.8333 20.929 14.7733 20.729 14.72C20.549 14.6733 20.3723 14.62 20.199 14.56C20.0257 14.5 19.869 14.4233 19.729 14.33C19.589 14.2367 19.4757 14.11 19.389 13.95C19.3023 13.79 19.259 13.5867 19.259 13.34C19.259 13.0333 19.339 12.78 19.499 12.58C19.659 12.3733 19.8723 12.22 20.139 12.12C20.4123 12.02 20.709 11.97 21.029 11.97C21.2423 11.97 21.4423 11.9867 21.629 12.02C21.8223 12.0533 21.989 12.0933 22.129 12.14C22.269 12.18 22.369 12.22 22.429 12.26L22.279 13.46H21.929L21.799 12.64C21.7723 12.6267 21.669 12.6 21.489 12.56C21.3157 12.5133 21.1323 12.49 20.939 12.49C20.5523 12.49 20.2823 12.55 20.129 12.67C19.9823 12.79 19.909 12.99 19.909 13.27C19.909 13.43 19.959 13.56 20.059 13.66C20.159 13.7533 20.2923 13.83 20.459 13.89C20.6257 13.95 20.8057 14.01 20.999 14.07C21.179 14.1233 21.3623 14.1833 21.549 14.25C21.7357 14.3167 21.9057 14.4033 22.059 14.51C22.2123 14.6167 22.3357 14.7533 22.429 14.92C22.5223 15.08 22.569 15.2867 22.569 15.54C22.569 15.9267 22.4823 16.2333 22.309 16.46C22.1423 16.68 21.919 16.84 21.639 16.94C21.3657 17.0333 21.069 17.08 20.749 17.08Z" fill="#83A5FF"/>
<path d="M25.2191 17.08C24.7258 17.08 24.3225 16.97 24.0091 16.75C23.7025 16.5233 23.4758 16.2267 23.3291 15.86C23.1891 15.4933 23.1191 15.1 23.1191 14.68C23.1191 14.14 23.2125 13.6667 23.3991 13.26C23.5858 12.8533 23.8458 12.5367 24.1791 12.31C24.5125 12.0833 24.8958 11.97 25.3291 11.97C25.5958 11.97 25.8258 12.02 26.0191 12.12C26.2125 12.2133 26.3725 12.3433 26.4991 12.51C26.6258 12.6767 26.7191 12.8667 26.7791 13.08C26.8458 13.2867 26.8791 13.5067 26.8791 13.74C26.8791 14.1067 26.8458 14.35 26.7791 14.47C26.7191 14.59 26.5925 14.65 26.3991 14.65H23.8691C23.8691 14.9633 23.9191 15.2567 24.0191 15.53C24.1258 15.7967 24.2991 16.0133 24.5391 16.18C24.7791 16.3467 25.1025 16.43 25.5091 16.43C25.8625 16.43 26.1391 16.3933 26.3391 16.32C26.5458 16.2467 26.6591 16.2033 26.6791 16.19L26.8091 16.43C26.7891 16.45 26.7125 16.5133 26.5791 16.62C26.4458 16.7267 26.2625 16.83 26.0291 16.93C25.8025 17.03 25.5325 17.08 25.2191 17.08ZM23.8891 14.24L26.1891 14.16C26.2091 14.04 26.2191 13.9 26.2191 13.74C26.2191 13.3467 26.1458 13.04 25.9991 12.82C25.8525 12.6 25.5725 12.49 25.1591 12.49C24.8791 12.49 24.6425 12.5567 24.4491 12.69C24.2625 12.8233 24.1225 13.02 24.0291 13.28C23.9358 13.54 23.8891 13.86 23.8891 14.24Z" fill="#83A5FF"/>
<path d="M27.8832 17V16.6L28.7232 16.44V11.08L27.8832 10.92V10.52H32.3632V12.1H31.9232L31.7232 11.02H30.5532L29.4332 11.07V13.44H31.1632L31.2932 12.88H31.6832V14.46H31.2932L31.1632 13.91H29.4332V16.35C29.5732 16.39 29.7599 16.4233 29.9932 16.45C30.2265 16.47 30.4499 16.48 30.6632 16.48H31.8032L32.0032 15.45H32.4532V17H27.8832Z" fill="#83A5FF"/>
<path d="M33.1263 17V16.63L33.7863 16.49V12.57H33.2163V12.17L33.7763 12.06C33.7963 11.6667 33.8897 11.32 34.0563 11.02C34.223 10.7133 34.443 10.4733 34.7163 10.3C34.9963 10.1267 35.3097 10.04 35.6563 10.04C35.8363 10.04 35.9697 10.0833 36.0563 10.17C36.143 10.25 36.1863 10.34 36.1863 10.44C36.1863 10.5467 36.1563 10.64 36.0963 10.72C36.043 10.8 35.9897 10.8533 35.9363 10.88C35.7897 10.84 35.653 10.81 35.5263 10.79C35.4063 10.77 35.2797 10.76 35.1463 10.76C35.033 10.76 34.913 10.7667 34.7863 10.78C34.6663 10.7933 34.563 10.8233 34.4763 10.87V12.08H36.6563C36.6763 11.68 36.7697 11.3267 36.9363 11.02C37.103 10.7133 37.323 10.4733 37.5963 10.3C37.8763 10.1267 38.1897 10.04 38.5363 10.04C38.7163 10.04 38.8497 10.0833 38.9363 10.17C39.023 10.25 39.0663 10.34 39.0663 10.44C39.0663 10.5467 39.0363 10.64 38.9763 10.72C38.923 10.8 38.8697 10.8533 38.8163 10.88C38.6697 10.84 38.533 10.81 38.4063 10.79C38.2863 10.77 38.1597 10.76 38.0263 10.76C37.913 10.76 37.793 10.7667 37.6663 10.78C37.5463 10.7933 37.443 10.8233 37.3563 10.87V12.08H38.6263V12.34L38.4963 12.57H37.3563V16.47L38.3963 16.63V17H35.8963V16.63L36.6663 16.49V12.57H34.4763V16.47L35.3163 16.63V17H33.1263Z" fill="#83A5FF"/>
<path d="M41.0883 17.08C40.5949 17.08 40.1916 16.97 39.8783 16.75C39.5716 16.5233 39.3449 16.2267 39.1983 15.86C39.0583 15.4933 38.9883 15.1 38.9883 14.68C38.9883 14.14 39.0816 13.6667 39.2683 13.26C39.4549 12.8533 39.7149 12.5367 40.0483 12.31C40.3816 12.0833 40.7649 11.97 41.1983 11.97C41.4649 11.97 41.6949 12.02 41.8883 12.12C42.0816 12.2133 42.2416 12.3433 42.3683 12.51C42.4949 12.6767 42.5883 12.8667 42.6483 13.08C42.7149 13.2867 42.7483 13.5067 42.7483 13.74C42.7483 14.1067 42.7149 14.35 42.6483 14.47C42.5883 14.59 42.4616 14.65 42.2683 14.65H39.7383C39.7383 14.9633 39.7883 15.2567 39.8883 15.53C39.9949 15.7967 40.1683 16.0133 40.4083 16.18C40.6483 16.3467 40.9716 16.43 41.3783 16.43C41.7316 16.43 42.0083 16.3933 42.2083 16.32C42.4149 16.2467 42.5283 16.2033 42.5483 16.19L42.6783 16.43C42.6583 16.45 42.5816 16.5133 42.4483 16.62C42.3149 16.7267 42.1316 16.83 41.8983 16.93C41.6716 17.03 41.4016 17.08 41.0883 17.08ZM39.7583 14.24L42.0583 14.16C42.0783 14.04 42.0883 13.9 42.0883 13.74C42.0883 13.3467 42.0149 13.04 41.8683 12.82C41.7216 12.6 41.4416 12.49 41.0283 12.49C40.7483 12.49 40.5116 12.5567 40.3183 12.69C40.1316 12.8233 39.9916 13.02 39.8983 13.28C39.8049 13.54 39.7583 13.86 39.7583 14.24Z" fill="#83A5FF"/>
<path d="M45.4437 17.08C45.0571 17.08 44.7038 16.9933 44.3838 16.82C44.0704 16.64 43.8204 16.37 43.6338 16.01C43.4471 15.65 43.3537 15.2033 43.3537 14.67C43.3537 14.35 43.3938 14.03 43.4738 13.71C43.5604 13.39 43.6937 13.1 43.8737 12.84C44.0537 12.5733 44.2838 12.3633 44.5638 12.21C44.8504 12.05 45.1904 11.97 45.5838 11.97C45.9238 11.97 46.2004 12.0333 46.4137 12.16C46.6337 12.28 46.7937 12.4333 46.8937 12.62C47.0004 12.8067 47.0537 13.0033 47.0537 13.21C47.0537 13.2833 47.0338 13.3533 46.9938 13.42C46.9538 13.48 46.9004 13.53 46.8338 13.57C46.7738 13.6033 46.7071 13.62 46.6338 13.62C46.5604 13.62 46.5004 13.6133 46.4538 13.6C46.4138 13.58 46.3838 13.5633 46.3638 13.55L46.2137 12.63C46.1871 12.61 46.1104 12.5833 45.9837 12.55C45.8571 12.51 45.7004 12.49 45.5138 12.49C45.1471 12.49 44.8604 12.57 44.6538 12.73C44.4538 12.8833 44.3137 13.1167 44.2337 13.43C44.1537 13.7367 44.1138 14.1233 44.1138 14.59C44.1138 15.05 44.1804 15.4167 44.3138 15.69C44.4471 15.9567 44.6371 16.1467 44.8838 16.26C45.1371 16.3733 45.4371 16.43 45.7837 16.43C46.0971 16.43 46.3537 16.3967 46.5537 16.33C46.7604 16.2633 46.8771 16.2233 46.9038 16.21L47.0238 16.47C47.0038 16.49 46.9338 16.55 46.8138 16.65C46.6938 16.75 46.5204 16.8467 46.2938 16.94C46.0671 17.0333 45.7837 17.08 45.4437 17.08Z" fill="#83A5FF"/>
<path d="M49.3495 17.03C49.0828 17.03 48.8761 16.9833 48.7295 16.89C48.5828 16.7967 48.4828 16.67 48.4295 16.51C48.3761 16.35 48.3495 16.1733 48.3495 15.98V12.54H47.6095V12.17L48.3495 11.96L48.5395 10.96H49.0395V12.06H50.4495V12.3L50.3095 12.54H49.0395V15.94C49.0395 16.1333 49.0795 16.26 49.1595 16.32C49.2395 16.3733 49.3628 16.4 49.5295 16.4C49.7228 16.4 49.8995 16.3833 50.0595 16.35C50.2195 16.31 50.3128 16.2867 50.3395 16.28L50.4195 16.55C50.2595 16.69 50.0795 16.8067 49.8795 16.9C49.6795 16.9867 49.5028 17.03 49.3495 17.03Z" fill="#83A5FF"/>
<path d="M12.4041 31.084L10.7001 25.876L9.98014 25.72V25.048H13.1841V25.768L12.3561 25.876L12.3681 25.96L13.3161 29.26L13.4361 29.74L13.5081 29.296L14.5881 25.048H16.1001L17.2161 29.26L17.3361 29.74L17.4201 29.296L18.4161 25.984L18.4281 25.876L17.5281 25.768V25.048H20.2761V25.732L19.4841 25.876L17.8401 31.084H16.2681L15.0921 27.016L14.0001 31.084H12.4041Z" fill="#83A5FF"/>
<path d="M20.1764 31V30.34L21.1244 30.172V26.092L20.1524 25.9V25.204L22.2644 24.928L22.7084 25.096V30.172L23.5484 30.34V31H20.1764ZM21.6764 24.268C21.4124 24.268 21.1924 24.18 21.0164 24.004C20.8404 23.82 20.7524 23.588 20.7524 23.308C20.7524 23.036 20.8524 22.796 21.0524 22.588C21.2524 22.38 21.4924 22.276 21.7724 22.276C22.0364 22.276 22.2564 22.356 22.4324 22.516C22.6164 22.676 22.7084 22.908 22.7084 23.212C22.7084 23.492 22.6124 23.74 22.4204 23.956C22.2364 24.164 21.9884 24.268 21.6764 24.268Z" fill="#83A5FF"/>
<path d="M26.4335 31.108C26.0175 31.108 25.6855 31.048 25.4375 30.928C25.1975 30.8 25.0295 30.616 24.9335 30.376C24.8375 30.136 24.7895 29.84 24.7895 29.488V25.912H23.6375V25.144L24.7895 24.892L25.3175 23.44H26.3735V25.012H28.0655V25.564L27.8975 25.912H26.3735V29.272C26.3735 29.592 26.4295 29.8 26.5415 29.896C26.6615 29.992 26.8215 30.04 27.0215 30.04C27.1975 30.04 27.3655 30.024 27.5255 29.992C27.6855 29.952 27.8215 29.904 27.9335 29.848L28.1375 30.46C27.9375 30.66 27.6815 30.82 27.3695 30.94C27.0575 31.052 26.7455 31.108 26.4335 31.108Z" fill="#83A5FF"/>
<path d="M28.529 31V30.34L29.477 30.172V23.776L28.505 23.584V22.888L30.617 22.612L31.061 22.78V25.36L30.941 25.444L30.977 25.516C31.073 25.444 31.217 25.36 31.409 25.264C31.609 25.168 31.829 25.084 32.069 25.012C32.317 24.932 32.565 24.892 32.813 24.892C33.165 24.892 33.469 24.948 33.725 25.06C33.981 25.172 34.177 25.356 34.313 25.612C34.449 25.86 34.517 26.188 34.517 26.596V30.172L35.405 30.34V31H32.141V30.34L32.933 30.172V26.896C32.933 26.68 32.913 26.504 32.873 26.368C32.833 26.224 32.745 26.12 32.609 26.056C32.473 25.984 32.265 25.948 31.985 25.948C31.841 25.948 31.681 25.956 31.505 25.972C31.329 25.988 31.181 26.012 31.061 26.044V30.172L31.853 30.34V31H28.529Z" fill="#83A5FF"/>
<path d="M38.5938 31.168C37.9138 31.168 37.3698 31.048 36.9618 30.808C36.5538 30.568 36.2578 30.22 36.0738 29.764C35.8978 29.3 35.8098 28.752 35.8098 28.12C35.8098 27.704 35.8658 27.304 35.9778 26.92C36.0898 26.528 36.2658 26.18 36.5058 25.876C36.7458 25.564 37.0618 25.32 37.4538 25.144C37.8458 24.96 38.3178 24.868 38.8698 24.868C39.5098 24.868 40.0258 24.996 40.4178 25.252C40.8178 25.5 41.1098 25.848 41.2938 26.296C41.4778 26.744 41.5698 27.26 41.5698 27.844C41.5698 28.268 41.5178 28.68 41.4138 29.08C41.3178 29.48 41.1538 29.84 40.9218 30.16C40.6978 30.472 40.3938 30.72 40.0098 30.904C39.6338 31.08 39.1618 31.168 38.5938 31.168ZM38.7978 30.208C39.1258 30.208 39.3618 30.108 39.5058 29.908C39.6578 29.7 39.7538 29.428 39.7938 29.092C39.8418 28.756 39.8658 28.392 39.8658 28C39.8658 27.48 39.8378 27.064 39.7818 26.752C39.7258 26.432 39.6178 26.2 39.4578 26.056C39.2978 25.904 39.0578 25.828 38.7378 25.828C38.3858 25.828 38.1218 25.904 37.9458 26.056C37.7698 26.2 37.6538 26.432 37.5978 26.752C37.5418 27.072 37.5138 27.488 37.5138 28C37.5138 28.48 37.5418 28.884 37.5978 29.212C37.6538 29.54 37.7738 29.788 37.9578 29.956C38.1418 30.124 38.4218 30.208 38.7978 30.208Z" fill="#83A5FF"/>
<path d="M44.705 31.144C44.089 31.144 43.637 31.008 43.349 30.736C43.061 30.456 42.917 30.028 42.917 29.452V26.092L41.957 25.9V25.204L44.057 24.928L44.501 25.096V29.02C44.501 29.404 44.573 29.68 44.717 29.848C44.861 30.016 45.137 30.1 45.545 30.1C45.705 30.1 45.869 30.08 46.037 30.04C46.205 29.992 46.337 29.944 46.433 29.896V26.092L45.461 25.9V25.204L47.561 24.928L48.017 25.096V29.944L48.965 30.136V30.832L46.877 31.108L46.517 30.556L46.421 30.568C46.205 30.736 45.937 30.876 45.617 30.988C45.297 31.092 44.993 31.144 44.705 31.144Z" fill="#83A5FF"/>
<path d="M51.8164 31.108C51.4004 31.108 51.0684 31.048 50.8204 30.928C50.5804 30.8 50.4124 30.616 50.3164 30.376C50.2204 30.136 50.1724 29.84 50.1724 29.488V25.912H49.0204V25.144L50.1724 24.892L50.7004 23.44H51.7564V25.012H53.4484V25.564L53.2804 25.912H51.7564V29.272C51.7564 29.592 51.8124 29.8 51.9244 29.896C52.0444 29.992 52.2044 30.04 52.4044 30.04C52.5804 30.04 52.7484 30.024 52.9084 29.992C53.0684 29.952 53.2044 29.904 53.3164 29.848L53.5204 30.46C53.3204 30.66 53.0644 30.82 52.7524 30.94C52.4404 31.052 52.1284 31.108 51.8164 31.108Z" fill="#83A5FF"/>
<path d="M18.4272 43V42.63L19.2272 42.49V38.87L18.4272 38.71V38.38L19.6772 38.09L19.9172 38.45C20.1506 38.3167 20.4072 38.2067 20.6872 38.12C20.9672 38.0267 21.2106 37.98 21.4172 37.98C21.6972 37.98 21.9206 38.03 22.0872 38.13C22.2606 38.23 22.3972 38.3567 22.4972 38.51C22.6372 38.4367 22.8072 38.36 23.0072 38.28C23.2072 38.2 23.4172 38.13 23.6372 38.07C23.8572 38.01 24.0672 37.98 24.2672 37.98C24.6139 37.98 24.8972 38.0967 25.1172 38.33C25.3372 38.5567 25.4472 38.8567 25.4472 39.23V42.49L26.2672 42.63V43H23.9572V42.63L24.7572 42.49V39.44C24.7572 39.1533 24.6772 38.9467 24.5172 38.82C24.3572 38.6933 24.0939 38.63 23.7272 38.63C23.6006 38.63 23.4339 38.64 23.2272 38.66C23.0206 38.68 22.8339 38.7133 22.6672 38.76C22.6672 38.7867 22.6672 38.82 22.6672 38.86C22.6672 38.8933 22.6672 38.9267 22.6672 38.96V42.49L23.2772 42.64V43H21.3472V42.64L21.9772 42.49V39.44C21.9772 39.1467 21.9006 38.94 21.7472 38.82C21.5939 38.6933 21.3339 38.63 20.9672 38.63C20.8472 38.63 20.6872 38.64 20.4872 38.66C20.2872 38.6733 20.0972 38.7067 19.9172 38.76V42.49L20.7272 42.63V43H18.4272Z" fill="#83A5FF"/>
<path d="M28.8071 43.08C28.3671 43.08 27.9937 42.98 27.6871 42.78C27.3804 42.58 27.1471 42.2933 26.9871 41.92C26.8271 41.5467 26.7471 41.1067 26.7471 40.6C26.7471 40.24 26.8004 39.9033 26.9071 39.59C27.0137 39.27 27.1637 38.99 27.3571 38.75C27.5504 38.51 27.7837 38.3233 28.0571 38.19C28.3304 38.05 28.6304 37.98 28.9571 37.98C29.4237 37.98 29.8137 38.0767 30.1271 38.27C30.4471 38.4633 30.6871 38.74 30.8471 39.1C31.0071 39.4533 31.0871 39.8767 31.0871 40.37C31.0871 40.7633 31.0337 41.1267 30.9271 41.46C30.8271 41.7867 30.6804 42.0733 30.4871 42.32C30.2937 42.56 30.0537 42.7467 29.7671 42.88C29.4871 43.0133 29.1671 43.08 28.8071 43.08ZM28.9971 42.56C29.3304 42.56 29.5937 42.4833 29.7871 42.33C29.9804 42.1767 30.1171 41.95 30.1971 41.65C30.2837 41.35 30.3271 40.9867 30.3271 40.56C30.3271 40.0867 30.2837 39.7 30.1971 39.4C30.1104 39.0933 29.9637 38.8667 29.7571 38.72C29.5571 38.5733 29.2804 38.5 28.9271 38.5C28.5271 38.5 28.2237 38.58 28.0171 38.74C27.8171 38.8933 27.6804 39.1233 27.6071 39.43C27.5404 39.73 27.5071 40.1067 27.5071 40.56C27.5071 40.98 27.5504 41.34 27.6371 41.64C27.7304 41.9333 27.8837 42.16 28.0971 42.32C28.3171 42.48 28.6171 42.56 28.9971 42.56Z" fill="#83A5FF"/>
<path d="M33.7499 43.08C33.2899 43.08 32.9299 42.9633 32.6699 42.73C32.4166 42.49 32.2899 42.15 32.2899 41.71V38.72L31.4499 38.59V38.26L32.7199 37.97L32.9799 38.11V41.26C32.9799 41.7267 33.0599 42.05 33.2199 42.23C33.3865 42.4033 33.6899 42.49 34.1299 42.49C34.2699 42.49 34.4365 42.46 34.6299 42.4C34.8232 42.34 34.9965 42.2633 35.1499 42.17V38.72L34.3299 38.59V38.26L35.5999 37.97L35.8599 38.11V42.33L36.5499 42.49V42.82L35.2699 43.01L35.1499 42.5L35.1399 42.51C34.9932 42.6767 34.7932 42.8133 34.5399 42.92C34.2865 43.0267 34.0232 43.08 33.7499 43.08Z" fill="#83A5FF"/>
<path d="M37.1089 43V42.63L37.9189 42.49V38.88L37.1089 38.75V38.38L38.5089 38.09L38.5589 38.46H38.5889C38.8689 38.32 39.1589 38.2067 39.4589 38.12C39.7655 38.0267 40.0122 37.98 40.1989 37.98C40.6122 37.98 40.9289 38.0967 41.1489 38.33C41.3755 38.5633 41.4889 38.8967 41.4889 39.33V42.49L42.2989 42.63V43H39.9889V42.63L40.7989 42.49V39.45C40.7989 39.1567 40.7155 38.9467 40.5489 38.82C40.3822 38.6933 40.0922 38.63 39.6789 38.63C39.4922 38.63 39.2922 38.6433 39.0789 38.67C38.8655 38.6967 38.7089 38.7267 38.6089 38.76V42.49L39.4089 42.63V43H37.1089Z" fill="#83A5FF"/>
<path d="M44.4422 43.03C44.1756 43.03 43.9689 42.9833 43.8222 42.89C43.6756 42.7967 43.5756 42.67 43.5222 42.51C43.4689 42.35 43.4422 42.1733 43.4422 41.98V38.54H42.7022V38.17L43.4422 37.96L43.6322 36.96H44.1322V38.06H45.5422V38.3L45.4022 38.54H44.1322V41.94C44.1322 42.1333 44.1722 42.26 44.2522 42.32C44.3322 42.3733 44.4556 42.4 44.6222 42.4C44.8156 42.4 44.9922 42.3833 45.1522 42.35C45.3122 42.31 45.4056 42.2867 45.4322 42.28L45.5122 42.55C45.3522 42.69 45.1722 42.8067 44.9722 42.9C44.7722 42.9867 44.5956 43.03 44.4422 43.03Z" fill="#83A5FF"/>
<path d="M2 26.5H5V29.5H2V26.5Z" fill="#83A5FF"/>
<path d="M31 2H33V4H31V2Z" fill="#83A5FF"/>
<path d="M58.5 26.5H61.5V29.5H58.5V26.5Z" fill="#83A5FF"/>
<path d="M31 50H33V52H31V50Z" fill="#83A5FF"/>
</svg>
